<svg width="45" height="45" viewBox="0 0 45 45" fill="none" xmlns="http://www.w3.org/2000/svg">
<path d="M22.5 42.6562C11.3813 42.6562 2.34375 33.6187 2.34375 22.5C2.34375 11.3813 11.3813 2.34375 22.5 2.34375C33.6187 2.34375 42.6562 11.3813 42.6562 22.5C42.6562 33.6187 33.6187 42.6562 22.5 42.6562ZM22.5 5.15625C12.9375 5.15625 5.15625 12.9375 5.15625 22.5C5.15625 32.0625 12.9375 39.8438 22.5 39.8438C32.0625 39.8438 39.8438 32.0625 39.8438 22.5C39.8438 12.9375 32.0625 5.15625 22.5 5.15625Z" fill="#292D32"/>
<path d="M24.8626 30.5251C24.5063 30.5251 24.1501 30.3938 23.8688 30.1125L17.2501 23.4938C16.7063 22.95 16.7063 22.05 17.2501 21.5063L23.8688 14.8875C24.4126 14.3438 25.3126 14.3438 25.8563 14.8875C26.4001 15.4313 26.4001 16.3313 25.8563 16.875L20.2313 22.5L25.8563 28.125C26.4001 28.6688 26.4001 29.5688 25.8563 30.1125C25.5938 30.3938 25.2376 30.5251 24.8626 30.5251Z" fill="#292D32"/>
</svg>
