<svg width="45" height="45" viewBox="0 0 45 45" fill="none" xmlns="http://www.w3.org/2000/svg">
<path d="M22.5 42.6562C11.3813 42.6562 2.34375 33.6187 2.34375 22.5C2.34375 11.3813 11.3813 2.34375 22.5 2.34375C33.6187 2.34375 42.6562 11.3813 42.6562 22.5C42.6562 33.6187 33.6187 42.6562 22.5 42.6562ZM22.5 5.15625C12.9375 5.15625 5.15625 12.9375 5.15625 22.5C5.15625 32.0625 12.9375 39.8438 22.5 39.8438C32.0625 39.8438 39.8438 32.0625 39.8438 22.5C39.8438 12.9375 32.0625 5.15625 22.5 5.15625Z" fill="#292D32"/>
<path d="M20.1374 30.5251C19.7812 30.5251 19.4249 30.3938 19.1437 30.1125C18.5999 29.5688 18.5999 28.6688 19.1437 28.125L24.7687 22.5L19.1437 16.875C18.5999 16.3313 18.5999 15.4313 19.1437 14.8875C19.6874 14.3438 20.5874 14.3438 21.1312 14.8875L27.7499 21.5063C28.2937 22.05 28.2937 22.95 27.7499 23.4938L21.1312 30.1125C20.8499 30.3938 20.4937 30.5251 20.1374 30.5251Z" fill="#292D32"/>
</svg>
