<svg width="25" height="24" viewBox="0 0 25 24" fill="none" xmlns="http://www.w3.org/2000/svg">
<path d="M12.5498 22.75C6.6198 22.75 1.7998 17.93 1.7998 12C1.7998 6.07 6.6198 1.25 12.5498 1.25C18.4798 1.25 23.2998 6.07 23.2998 12C23.2998 17.93 18.4798 22.75 12.5498 22.75ZM12.5498 2.75C7.4498 2.75 3.2998 6.9 3.2998 12C3.2998 17.1 7.4498 21.25 12.5498 21.25C17.6498 21.25 21.7998 17.1 21.7998 12C21.7998 6.9 17.6498 2.75 12.5498 2.75Z" fill="white"/>
<path d="M16.2599 15.93C16.1299 15.93 15.9999 15.9 15.8799 15.82L12.7799 13.97C12.0099 13.51 11.4399 12.5 11.4399 11.61V7.51001C11.4399 7.10001 11.7799 6.76001 12.1899 6.76001C12.5999 6.76001 12.9399 7.10001 12.9399 7.51001V11.61C12.9399 11.97 13.2399 12.5 13.5499 12.68L16.6499 14.53C17.0099 14.74 17.1199 15.2 16.9099 15.56C16.7599 15.8 16.5099 15.93 16.2599 15.93Z" fill="white"/>
</svg>
