<svg width="40" height="40" viewBox="0 0 40 40" fill="none" xmlns="http://www.w3.org/2000/svg">
<path d="M24.5833 37.9167H17.0833V25.8333H15.5C14.5333 25.8333 13.75 25.05 13.75 24.0834V20.9166C13.75 19.95 14.5333 19.1667 15.5 19.1667H17.0833V15C17.0833 11.55 19.8833 8.75 23.3333 8.75H27.8334C28.8 8.75 29.5833 9.53331 29.5833 10.5V14.5C29.5833 15.4667 28.8 16.25 27.8334 16.25H24.5833V19.1667H27.7167C28.25 19.1667 28.7333 19.4 29.0667 19.8C29.4 20.2 29.5333 20.7333 29.4333 21.25L28.8 24.4167C28.6333 25.2333 27.9167 25.8167 27.0833 25.8167H24.5833V37.9167ZM19.5833 35.4167H22.0833V23.3333H26.4834L26.8167 21.6667H22.1V15.5C22.1 14.5333 22.8833 13.75 23.85 13.75H27.1V11.25H23.3333C21.2667 11.25 19.5833 12.9333 19.5833 15V21.6667H16.25V23.3333H19.5833V35.4167Z" fill="#292D32"/>
<path d="M25 37.9166H15C5.95001 37.9166 2.08334 34.0499 2.08334 24.9999V14.9999C2.08334 5.94992 5.95001 2.08325 15 2.08325H25C34.05 2.08325 37.9167 5.94992 37.9167 14.9999V24.9999C37.9167 34.0499 34.05 37.9166 25 37.9166ZM15 4.58325C7.31668 4.58325 4.58334 7.31659 4.58334 14.9999V24.9999C4.58334 32.6833 7.31668 35.4166 15 35.4166H25C32.6833 35.4166 35.4167 32.6833 35.4167 24.9999V14.9999C35.4167 7.31659 32.6833 4.58325 25 4.58325H15Z" fill="#292D32"/>
</svg>
