<svg width="25" height="25" viewBox="0 0 25 25" fill="none" xmlns="http://www.w3.org/2000/svg">
<path d="M15.2998 23.0801H10.7998V15.8301H9.84979C9.26979 15.8301 8.7998 15.3601 8.7998 14.7801V12.8801C8.7998 12.3001 9.26979 11.8301 9.84979 11.8301H10.7998V9.33008C10.7998 7.26008 12.4798 5.58008 14.5498 5.58008H17.2498C17.8298 5.58008 18.2998 6.05007 18.2998 6.63007V9.03009C18.2998 9.61009 17.8298 10.0801 17.2498 10.0801H15.2998V11.8301H17.1798C17.4998 11.8301 17.7898 11.9701 17.9898 12.2101C18.1898 12.4501 18.2698 12.7701 18.2098 13.0801L17.8298 14.9801C17.7298 15.4701 17.2998 15.8201 16.7998 15.8201H15.2998V23.0801V23.0801ZM12.2998 21.5801H13.7998V14.3301H16.4398L16.6398 13.3301H13.8098V9.63007C13.8098 9.05007 14.2798 8.58008 14.8598 8.58008H16.8098V7.08008H14.5498C13.3098 7.08008 12.2998 8.09008 12.2998 9.33008V13.3301H10.2998V14.3301H12.2998V21.5801Z" fill="#B5BD19"/>
<path d="M15.5498 23.0801H9.5498C4.1198 23.0801 1.7998 20.7601 1.7998 15.3301V9.33008C1.7998 3.90008 4.1198 1.58008 9.5498 1.58008H15.5498C20.9798 1.58008 23.2998 3.90008 23.2998 9.33008V15.3301C23.2998 20.7601 20.9798 23.0801 15.5498 23.0801ZM9.5498 3.08008C4.9398 3.08008 3.2998 4.72008 3.2998 9.33008V15.3301C3.2998 19.9401 4.9398 21.5801 9.5498 21.5801H15.5498C20.1598 21.5801 21.7998 19.9401 21.7998 15.3301V9.33008C21.7998 4.72008 20.1598 3.08008 15.5498 3.08008H9.5498Z" fill="#B5BD19"/>
</svg>
