<svg width="40" height="40" viewBox="0 0 40 40" fill="none" xmlns="http://www.w3.org/2000/svg">
<path d="M25 37.9166H15C5.95 37.9166 2.08333 34.0499 2.08333 24.9999V14.9999C2.08333 5.94992 5.95 2.08325 15 2.08325H25C34.05 2.08325 37.9167 5.94992 37.9167 14.9999V24.9999C37.9167 34.0499 34.05 37.9166 25 37.9166ZM15 4.58325C7.31666 4.58325 4.58333 7.31659 4.58333 14.9999V24.9999C4.58333 32.6833 7.31666 35.4166 15 35.4166H25C32.6833 35.4166 35.4167 32.6833 35.4167 24.9999V14.9999C35.4167 7.31659 32.6833 4.58325 25 4.58325H15Z" fill="#292D32"/>
<path d="M20 27.0834C16.1 27.0834 12.9167 23.9001 12.9167 20.0001C12.9167 16.1001 16.1 12.9167 20 12.9167C23.9 12.9167 27.0833 16.1001 27.0833 20.0001C27.0833 23.9001 23.9 27.0834 20 27.0834ZM20 15.4167C17.4667 15.4167 15.4167 17.4667 15.4167 20.0001C15.4167 22.5334 17.4667 24.5834 20 24.5834C22.5333 24.5834 24.5833 22.5334 24.5833 20.0001C24.5833 17.4667 22.5333 15.4167 20 15.4167Z" fill="#292D32"/>
<path d="M28.3333 12.5001C28.1167 12.5001 27.9 12.4501 27.7 12.3668C27.5 12.2834 27.3167 12.1668 27.15 12.0168C27 11.8501 26.8667 11.6668 26.7833 11.4668C26.7 11.2668 26.6667 11.0501 26.6667 10.8334C26.6667 10.6168 26.7 10.4001 26.7833 10.2001C26.8833 9.98342 27 9.81675 27.15 9.65008C27.2333 9.58342 27.3167 9.50008 27.4 9.45008C27.5 9.38342 27.6 9.33342 27.7 9.30008C27.8 9.25008 27.9 9.21675 28.0167 9.20008C28.55 9.08342 29.1167 9.26675 29.5167 9.65008C29.6667 9.81675 29.7833 9.98342 29.8667 10.2001C29.95 10.4001 30 10.6168 30 10.8334C30 11.0501 29.95 11.2668 29.8667 11.4668C29.7833 11.6668 29.6667 11.8501 29.5167 12.0168C29.35 12.1668 29.1667 12.2834 28.9667 12.3668C28.7667 12.4501 28.55 12.5001 28.3333 12.5001Z" fill="#292D32"/>
</svg>
