<svg width="24" height="24" viewBox="0 0 24 24" fill="none" xmlns="http://www.w3.org/2000/svg">
<path d="M16.28 22.1H12.48C11.92 22.1 10.7 21.93 10.05 21.28L7.01999 18.94L7.93999 17.75L11.04 20.15C11.29 20.39 11.92 20.59 12.48 20.59H16.28C17.18 20.59 18.15 19.87 18.35 19.06L20.77 11.71C20.93 11.27 20.9 10.87 20.69 10.58C20.47 10.27 20.07 10.09 19.58 10.09H15.58C15.06 10.09 14.58 9.87001 14.25 9.49001C13.91 9.10001 13.76 8.58001 13.84 8.04001L14.34 4.83001C14.46 4.27001 14.08 3.64001 13.54 3.46001C13.05 3.28001 12.42 3.54001 12.2 3.86001L8.09999 9.96001L6.85999 9.13001L10.96 3.03001C11.59 2.09001 12.97 1.64001 14.05 2.05001C15.3 2.46001 16.1 3.84001 15.82 5.12001L15.33 8.27001C15.32 8.34001 15.32 8.44001 15.39 8.52001C15.44 8.57001 15.51 8.60001 15.59 8.60001H19.59C20.57 8.60001 21.42 9.01001 21.92 9.72001C22.41 10.41 22.51 11.32 22.19 12.2L19.8 19.48C19.43 20.93 17.89 22.1 16.28 22.1Z" fill="white"/>
<path d="M5.38 21H4.38C2.53 21 1.63 20.13 1.63 18.35V8.54999C1.63 6.76999 2.53 5.89999 4.38 5.89999H5.38C7.23 5.89999 8.13 6.76999 8.13 8.54999V18.35C8.13 20.13 7.23 21 5.38 21ZM4.38 7.39999C3.29 7.39999 3.13001 7.65999 3.13001 8.54999V18.35C3.13001 19.24 3.29 19.5 4.38 19.5H5.38C6.47001 19.5 6.63 19.24 6.63 18.35V8.54999C6.63 7.65999 6.47001 7.39999 5.38 7.39999H4.38Z" fill="white"/>
</svg>
