<svg width="25" height="24" viewBox="0 0 25 24" fill="none" xmlns="http://www.w3.org/2000/svg">
<path d="M12.5497 14.1699C10.4197 14.1699 8.67969 12.4399 8.67969 10.2999C8.67969 8.15994 10.4197 6.43994 12.5497 6.43994C14.6797 6.43994 16.4197 8.16994 16.4197 10.3099C16.4197 12.4499 14.6797 14.1699 12.5497 14.1699ZM12.5497 7.93994C11.2497 7.93994 10.1797 8.99994 10.1797 10.3099C10.1797 11.6199 11.2397 12.6799 12.5497 12.6799C13.8597 12.6799 14.9197 11.6199 14.9197 10.3099C14.9197 8.99994 13.8497 7.93994 12.5497 7.93994Z" fill="white"/>
<path d="M12.55 22.76C11.07 22.76 9.57998 22.2 8.41998 21.09C5.46998 18.25 2.20998 13.72 3.43998 8.33C4.54998 3.44 8.81998 1.25 12.55 1.25C12.55 1.25 12.55 1.25 12.56 1.25C16.29 1.25 20.56 3.44 21.67 8.34C22.89 13.73 19.63 18.25 16.68 21.09C15.52 22.2 14.03 22.76 12.55 22.76ZM12.55 2.75C9.63998 2.75 5.89998 4.3 4.90998 8.66C3.82998 13.37 6.78998 17.43 9.46998 20C11.2 21.67 13.91 21.67 15.64 20C18.31 17.43 21.27 13.37 20.21 8.66C19.21 4.3 15.46 2.75 12.55 2.75Z" fill="white"/>
</svg>
