<svg width="30" height="30" viewBox="0 0 30 30" fill="none" xmlns="http://www.w3.org/2000/svg">
<path d="M18.75 28.4375H11.25C4.4625 28.4375 1.5625 25.5375 1.5625 18.75V11.25C1.5625 4.4625 4.4625 1.5625 11.25 1.5625H18.75C25.5375 1.5625 28.4375 4.4625 28.4375 11.25V18.75C28.4375 25.5375 25.5375 28.4375 18.75 28.4375ZM11.25 3.4375C5.4875 3.4375 3.4375 5.4875 3.4375 11.25V18.75C3.4375 24.5125 5.4875 26.5625 11.25 26.5625H18.75C24.5125 26.5625 26.5625 24.5125 26.5625 18.75V11.25C26.5625 5.4875 24.5125 3.4375 18.75 3.4375H11.25Z" fill="#292D32"/>
<path d="M8.61249 27.7875C8.09999 27.7875 7.67499 27.3625 7.67499 26.85V3.15002C7.67499 2.63752 8.09999 2.21252 8.61249 2.21252C9.12499 2.21252 9.54999 2.62502 9.54999 3.15002V26.85C9.54999 27.375 9.12499 27.7875 8.61249 27.7875Z" fill="#292D32"/>
<path d="M21.1125 27.7875C20.6 27.7875 20.175 27.3625 20.175 26.85V3.15002C20.175 2.63752 20.6 2.21252 21.1125 2.21252C21.625 2.21252 22.05 2.63752 22.05 3.15002V26.85C22.05 27.375 21.625 27.7875 21.1125 27.7875Z" fill="#292D32"/>
<path d="M8.61249 9.65002H3.17499C2.66249 9.65002 2.23749 9.22502 2.23749 8.71252C2.23749 8.20002 2.66249 7.77502 3.17499 7.77502H8.61249C9.12499 7.77502 9.54999 8.20002 9.54999 8.71252C9.54999 9.22502 9.12499 9.65002 8.61249 9.65002Z" fill="#292D32"/>
<path d="M8.61251 15.9375H2.53751C2.02501 15.9375 1.60001 15.5125 1.60001 15C1.60001 14.4875 2.02501 14.0625 2.53751 14.0625H8.61251C9.12501 14.0625 9.55001 14.4875 9.55001 15C9.55001 15.5125 9.12501 15.9375 8.61251 15.9375Z" fill="#292D32"/>
<path d="M8.61251 22.15H3.10001C2.58751 22.15 2.16251 21.725 2.16251 21.2125C2.16251 20.7 2.58751 20.275 3.10001 20.275H8.61251C9.12501 20.275 9.55001 20.7 9.55001 21.2125C9.55001 21.725 9.12501 22.15 8.61251 22.15Z" fill="#292D32"/>
<path d="M27.3625 9.65002H21.925C21.4125 9.65002 20.9875 9.22502 20.9875 8.71252C20.9875 8.20002 21.4125 7.77502 21.925 7.77502H27.3625C27.875 7.77502 28.3 8.20002 28.3 8.71252C28.3 9.22502 27.875 9.65002 27.3625 9.65002Z" fill="#292D32"/>
<path d="M27.3625 15.9375H21.2875C20.775 15.9375 20.35 15.5125 20.35 15C20.35 14.4875 20.775 14.0625 21.2875 14.0625H27.3625C27.875 14.0625 28.3 14.4875 28.3 15C28.3 15.5125 27.875 15.9375 27.3625 15.9375Z" fill="#292D32"/>
<path d="M21.2125 15.9375H7.46249C6.94999 15.9375 6.52499 15.5125 6.52499 15C6.52499 14.4875 6.94999 14.0625 7.46249 14.0625H21.2125C21.725 14.0625 22.15 14.4875 22.15 15C22.15 15.5125 21.7375 15.9375 21.2125 15.9375Z" fill="#292D32"/>
<path d="M27.3625 22.15H21.85C21.3375 22.15 20.9125 21.725 20.9125 21.2125C20.9125 20.7 21.3375 20.275 21.85 20.275H27.3625C27.875 20.275 28.3 20.7 28.3 21.2125C28.3 21.725 27.875 22.15 27.3625 22.15Z" fill="#292D32"/>
</svg>
