<svg width="25" height="25" viewBox="0 0 25 25" fill="none" xmlns="http://www.w3.org/2000/svg">
<path d="M17.5498 21.0801H7.5498C4.1098 21.0801 1.7998 18.7701 1.7998 15.3301V9.33008C1.7998 5.89008 4.1098 3.58008 7.5498 3.58008H17.5498C20.9898 3.58008 23.2998 5.89008 23.2998 9.33008V15.3301C23.2998 18.7701 20.9898 21.0801 17.5498 21.0801ZM7.5498 5.08008C4.9698 5.08008 3.2998 6.75008 3.2998 9.33008V15.3301C3.2998 17.9101 4.9698 19.5801 7.5498 19.5801H17.5498C20.1298 19.5801 21.7998 17.9101 21.7998 15.3301V9.33008C21.7998 6.75008 20.1298 5.08008 17.5498 5.08008H7.5498Z" fill="#B5BD19"/>
<path d="M11.14 15.8601C10.85 15.8601 10.5699 15.7901 10.3199 15.6501C9.73995 15.3201 9.3999 14.65 9.3999 13.82V10.8601C9.3999 10.0301 9.72995 9.36007 10.3199 9.03007C10.8999 8.70007 11.6499 8.76004 12.3599 9.19004L14.83 10.67C15.51 11.08 15.8999 11.6901 15.8999 12.3401C15.8999 12.9901 15.51 13.6 14.83 14.01L12.3599 15.4901C11.9499 15.7301 11.53 15.8601 11.14 15.8601ZM11.14 10.3001C11.1 10.3001 11.0699 10.31 11.0499 10.32C10.9799 10.36 10.8999 10.54 10.8999 10.85V13.8101C10.8999 14.1101 10.9799 14.2901 11.0499 14.3401C11.1299 14.3801 11.32 14.36 11.58 14.2L14.0499 12.7201C14.2999 12.5701 14.39 12.4201 14.39 12.3301C14.39 12.2401 14.2999 12.1 14.0499 11.94L11.58 10.4601C11.4 10.3501 11.24 10.3001 11.14 10.3001Z" fill="#B5BD19"/>
</svg>
