<svg width="40" height="40" viewBox="0 0 40 40" fill="none" xmlns="http://www.w3.org/2000/svg">
<path d="M28.3333 34.5834H11.6667C5.93334 34.5834 2.08334 30.7334 2.08334 25.0001V15.0001C2.08334 9.26675 5.93334 5.41675 11.6667 5.41675H28.3333C34.0667 5.41675 37.9167 9.26675 37.9167 15.0001V25.0001C37.9167 30.7334 34.0667 34.5834 28.3333 34.5834ZM11.6667 7.91675C7.36668 7.91675 4.58334 10.7001 4.58334 15.0001V25.0001C4.58334 29.3001 7.36668 32.0834 11.6667 32.0834H28.3333C32.6333 32.0834 35.4167 29.3001 35.4167 25.0001V15.0001C35.4167 10.7001 32.6333 7.91675 28.3333 7.91675H11.6667Z" fill="#292D32"/>
<path d="M17.65 25.8834C17.1667 25.8834 16.7 25.7667 16.2833 25.5334C15.3167 24.9834 14.7499 23.8667 14.7499 22.4834V17.55C14.7499 16.1667 15.3 15.0501 16.2833 14.5001C17.25 13.9501 18.5 14.05 19.6833 14.7667L23.8 17.2334C24.9334 17.9167 25.5833 18.9334 25.5833 20.0167C25.5833 21.1001 24.9334 22.1167 23.8 22.8L19.6833 25.2667C19 25.6667 18.3 25.8834 17.65 25.8834ZM17.65 16.6167C17.5834 16.6167 17.5333 16.6334 17.5 16.65C17.3833 16.7167 17.2499 17.0167 17.2499 17.5334V22.4667C17.2499 22.9667 17.3833 23.2667 17.5 23.3501C17.6333 23.4167 17.95 23.3834 18.3834 23.1167L22.5 20.6501C22.9166 20.4001 23.0667 20.15 23.0667 20C23.0667 19.85 22.9166 19.6167 22.5 19.35L18.3834 16.8834C18.0834 16.7 17.8167 16.6167 17.65 16.6167Z" fill="#292D32"/>
</svg>
